<mxfile host="Electron" agent="Mozilla/5.0 (Windows NT 10.0; Win64; x64) AppleWebKit/537.36 (KHTML, like Gecko) draw.io/24.7.17 Chrome/128.0.6613.36 Electron/32.0.1 Safari/537.36" version="24.7.17">
  <diagram name="Page-1" id="ND74wP93LWeR70ogIvw6">
    <mxGraphModel dx="1132" dy="671" grid="1" gridSize="10" guides="1" tooltips="1" connect="1" arrows="1" fold="1" page="1" pageScale="1" pageWidth="850" pageHeight="1100" math="0" shadow="0">
      <root>
        <mxCell id="0" />
        <mxCell id="1" parent="0" />
        <mxCell id="GsUJ0a0Cn8YFIzzL3es4-1" value="&lt;u&gt;SSN&lt;/u&gt;" style="rounded=1;arcSize=10;whiteSpace=wrap;html=1;align=center;" parent="1" vertex="1">
          <mxGeometry x="118" y="129" width="100" height="40" as="geometry" />
        </mxCell>
        <mxCell id="GsUJ0a0Cn8YFIzzL3es4-3" value="Employee" style="text;html=1;align=center;verticalAlign=middle;whiteSpace=wrap;rounded=0;" parent="1" vertex="1">
          <mxGeometry x="48" y="134" width="60" height="30" as="geometry" />
        </mxCell>
        <mxCell id="GsUJ0a0Cn8YFIzzL3es4-5" value="Bdet&lt;span style=&quot;white-space: pre;&quot;&gt;&#x9;&lt;/span&gt;" style="rounded=1;arcSize=10;whiteSpace=wrap;html=1;align=center;" parent="1" vertex="1">
          <mxGeometry x="218" y="129" width="100" height="40" as="geometry" />
        </mxCell>
        <mxCell id="GsUJ0a0Cn8YFIzzL3es4-6" value="Fname" style="rounded=1;arcSize=10;whiteSpace=wrap;html=1;align=center;" parent="1" vertex="1">
          <mxGeometry x="318" y="129" width="100" height="40" as="geometry" />
        </mxCell>
        <mxCell id="GsUJ0a0Cn8YFIzzL3es4-8" value="Lname" style="rounded=1;arcSize=10;whiteSpace=wrap;html=1;align=center;" parent="1" vertex="1">
          <mxGeometry x="418" y="129" width="100" height="40" as="geometry" />
        </mxCell>
        <mxCell id="GsUJ0a0Cn8YFIzzL3es4-9" value="Sex" style="rounded=1;arcSize=10;whiteSpace=wrap;html=1;align=center;" parent="1" vertex="1">
          <mxGeometry x="518" y="129" width="100" height="40" as="geometry" />
        </mxCell>
        <mxCell id="GsUJ0a0Cn8YFIzzL3es4-10" value="Adress" style="rounded=1;arcSize=10;whiteSpace=wrap;html=1;align=center;" parent="1" vertex="1">
          <mxGeometry x="618" y="129" width="100" height="40" as="geometry" />
        </mxCell>
        <mxCell id="42ggUgKCywgjuGTRXlZn-1" value="Salary" style="rounded=1;arcSize=10;whiteSpace=wrap;html=1;align=center;" vertex="1" parent="1">
          <mxGeometry x="718" y="129" width="100" height="40" as="geometry" />
        </mxCell>
        <mxCell id="42ggUgKCywgjuGTRXlZn-2" value="Daparment" style="text;html=1;align=center;verticalAlign=middle;whiteSpace=wrap;rounded=0;" vertex="1" parent="1">
          <mxGeometry x="48" y="215" width="60" height="30" as="geometry" />
        </mxCell>
        <mxCell id="42ggUgKCywgjuGTRXlZn-63" style="edgeStyle=orthogonalEdgeStyle;rounded=0;orthogonalLoop=1;jettySize=auto;html=1;exitX=0.5;exitY=0;exitDx=0;exitDy=0;entryX=0.5;entryY=1;entryDx=0;entryDy=0;" edge="1" parent="1" source="42ggUgKCywgjuGTRXlZn-3" target="42ggUgKCywgjuGTRXlZn-62">
          <mxGeometry relative="1" as="geometry" />
        </mxCell>
        <mxCell id="42ggUgKCywgjuGTRXlZn-3" value="&lt;u&gt;Number&lt;/u&gt;" style="rounded=1;arcSize=10;whiteSpace=wrap;html=1;align=center;" vertex="1" parent="1">
          <mxGeometry x="118" y="210" width="100" height="40" as="geometry" />
        </mxCell>
        <mxCell id="42ggUgKCywgjuGTRXlZn-4" value="Name" style="rounded=1;arcSize=10;whiteSpace=wrap;html=1;align=center;" vertex="1" parent="1">
          <mxGeometry x="218" y="210" width="100" height="40" as="geometry" />
        </mxCell>
        <mxCell id="42ggUgKCywgjuGTRXlZn-64" style="edgeStyle=orthogonalEdgeStyle;rounded=0;orthogonalLoop=1;jettySize=auto;html=1;exitX=0.5;exitY=0;exitDx=0;exitDy=0;entryX=0.5;entryY=1;entryDx=0;entryDy=0;" edge="1" parent="1" source="42ggUgKCywgjuGTRXlZn-5" target="GsUJ0a0Cn8YFIzzL3es4-1">
          <mxGeometry relative="1" as="geometry" />
        </mxCell>
        <mxCell id="42ggUgKCywgjuGTRXlZn-5" value="Manger_SSN" style="rounded=1;arcSize=10;whiteSpace=wrap;html=1;align=center;" vertex="1" parent="1">
          <mxGeometry x="318" y="210" width="100" height="40" as="geometry" />
        </mxCell>
        <mxCell id="42ggUgKCywgjuGTRXlZn-8" value="DLocation" style="text;html=1;align=center;verticalAlign=middle;whiteSpace=wrap;rounded=0;" vertex="1" parent="1">
          <mxGeometry x="48" y="290" width="60" height="30" as="geometry" />
        </mxCell>
        <mxCell id="42ggUgKCywgjuGTRXlZn-9" value="Location" style="rounded=1;arcSize=10;whiteSpace=wrap;html=1;align=center;" vertex="1" parent="1">
          <mxGeometry x="218" y="285" width="100" height="40" as="geometry" />
        </mxCell>
        <mxCell id="42ggUgKCywgjuGTRXlZn-32" style="edgeStyle=elbowEdgeStyle;rounded=0;orthogonalLoop=1;jettySize=auto;html=1;exitX=0.5;exitY=0;exitDx=0;exitDy=0;entryX=0.5;entryY=1;entryDx=0;entryDy=0;" edge="1" parent="1" source="42ggUgKCywgjuGTRXlZn-10" target="42ggUgKCywgjuGTRXlZn-3">
          <mxGeometry relative="1" as="geometry" />
        </mxCell>
        <mxCell id="42ggUgKCywgjuGTRXlZn-10" value="&lt;u&gt;DNumber&lt;/u&gt;" style="rounded=1;arcSize=10;whiteSpace=wrap;html=1;align=center;" vertex="1" parent="1">
          <mxGeometry x="118" y="285" width="100" height="40" as="geometry" />
        </mxCell>
        <mxCell id="42ggUgKCywgjuGTRXlZn-17" value="StartDate" style="rounded=1;arcSize=10;whiteSpace=wrap;html=1;align=center;" vertex="1" parent="1">
          <mxGeometry x="418" y="210" width="100" height="40" as="geometry" />
        </mxCell>
        <mxCell id="42ggUgKCywgjuGTRXlZn-37" value="Project" style="text;html=1;align=center;verticalAlign=middle;whiteSpace=wrap;rounded=0;" vertex="1" parent="1">
          <mxGeometry x="48" y="367" width="60" height="25" as="geometry" />
        </mxCell>
        <mxCell id="42ggUgKCywgjuGTRXlZn-38" value="Location" style="rounded=1;arcSize=10;whiteSpace=wrap;html=1;align=center;" vertex="1" parent="1">
          <mxGeometry x="218" y="357" width="100" height="40" as="geometry" />
        </mxCell>
        <mxCell id="42ggUgKCywgjuGTRXlZn-39" value="Name" style="rounded=1;arcSize=10;whiteSpace=wrap;html=1;align=center;" vertex="1" parent="1">
          <mxGeometry x="118" y="357" width="100" height="40" as="geometry" />
        </mxCell>
        <mxCell id="42ggUgKCywgjuGTRXlZn-55" style="edgeStyle=orthogonalEdgeStyle;rounded=0;orthogonalLoop=1;jettySize=auto;html=1;exitX=0.5;exitY=0;exitDx=0;exitDy=0;entryX=0.5;entryY=1;entryDx=0;entryDy=0;" edge="1" parent="1" source="42ggUgKCywgjuGTRXlZn-40" target="42ggUgKCywgjuGTRXlZn-3">
          <mxGeometry relative="1" as="geometry" />
        </mxCell>
        <mxCell id="42ggUgKCywgjuGTRXlZn-40" value="&lt;u&gt;DNumber&lt;/u&gt;" style="rounded=1;arcSize=10;whiteSpace=wrap;html=1;align=center;" vertex="1" parent="1">
          <mxGeometry x="418" y="357" width="100" height="40" as="geometry" />
        </mxCell>
        <mxCell id="42ggUgKCywgjuGTRXlZn-56" value="Works_On" style="text;html=1;align=center;verticalAlign=middle;whiteSpace=wrap;rounded=0;" vertex="1" parent="1">
          <mxGeometry x="48" y="436" width="60" height="30" as="geometry" />
        </mxCell>
        <mxCell id="42ggUgKCywgjuGTRXlZn-57" value="Hours" style="rounded=1;arcSize=10;whiteSpace=wrap;html=1;align=center;" vertex="1" parent="1">
          <mxGeometry x="318" y="431" width="100" height="40" as="geometry" />
        </mxCell>
        <mxCell id="42ggUgKCywgjuGTRXlZn-58" value="&lt;u&gt;ESNN&lt;/u&gt;" style="rounded=1;arcSize=10;whiteSpace=wrap;html=1;align=center;" vertex="1" parent="1">
          <mxGeometry x="118" y="431" width="100" height="40" as="geometry" />
        </mxCell>
        <mxCell id="42ggUgKCywgjuGTRXlZn-73" style="edgeStyle=orthogonalEdgeStyle;rounded=0;orthogonalLoop=1;jettySize=auto;html=1;" edge="1" parent="1" source="42ggUgKCywgjuGTRXlZn-59" target="42ggUgKCywgjuGTRXlZn-66">
          <mxGeometry relative="1" as="geometry" />
        </mxCell>
        <mxCell id="42ggUgKCywgjuGTRXlZn-59" value="&lt;u&gt;PNumber&lt;/u&gt;" style="rounded=1;arcSize=10;whiteSpace=wrap;html=1;align=center;" vertex="1" parent="1">
          <mxGeometry x="218" y="431" width="100" height="40" as="geometry" />
        </mxCell>
        <mxCell id="42ggUgKCywgjuGTRXlZn-62" value="&lt;u&gt;DNumber&lt;/u&gt;" style="rounded=1;arcSize=10;whiteSpace=wrap;html=1;align=center;" vertex="1" parent="1">
          <mxGeometry x="818" y="129" width="100" height="40" as="geometry" />
        </mxCell>
        <mxCell id="42ggUgKCywgjuGTRXlZn-65" value="&lt;u&gt;SuperSSN&lt;/u&gt;" style="rounded=1;arcSize=10;whiteSpace=wrap;html=1;align=center;" vertex="1" parent="1">
          <mxGeometry x="918" y="129" width="100" height="40" as="geometry" />
        </mxCell>
        <mxCell id="42ggUgKCywgjuGTRXlZn-66" value="&lt;u&gt;PNumber&lt;/u&gt;" style="rounded=1;arcSize=10;whiteSpace=wrap;html=1;align=center;" vertex="1" parent="1">
          <mxGeometry x="318" y="357" width="100" height="40" as="geometry" />
        </mxCell>
        <mxCell id="42ggUgKCywgjuGTRXlZn-67" value="Dependent" style="text;html=1;align=center;verticalAlign=middle;whiteSpace=wrap;rounded=0;" vertex="1" parent="1">
          <mxGeometry x="48" y="505" width="60" height="30" as="geometry" />
        </mxCell>
        <mxCell id="42ggUgKCywgjuGTRXlZn-68" value="Sex" style="rounded=1;arcSize=10;whiteSpace=wrap;html=1;align=center;" vertex="1" parent="1">
          <mxGeometry x="318" y="500" width="100" height="40" as="geometry" />
        </mxCell>
        <mxCell id="42ggUgKCywgjuGTRXlZn-69" value="&lt;u&gt;Name&lt;/u&gt;" style="rounded=1;arcSize=10;whiteSpace=wrap;html=1;align=center;" vertex="1" parent="1">
          <mxGeometry x="118" y="500" width="100" height="40" as="geometry" />
        </mxCell>
        <mxCell id="42ggUgKCywgjuGTRXlZn-70" value="&lt;u&gt;ESNN&lt;/u&gt;" style="rounded=1;arcSize=10;whiteSpace=wrap;html=1;align=center;" vertex="1" parent="1">
          <mxGeometry x="218" y="500" width="100" height="40" as="geometry" />
        </mxCell>
        <mxCell id="42ggUgKCywgjuGTRXlZn-74" value="DOB" style="rounded=1;arcSize=10;whiteSpace=wrap;html=1;align=center;" vertex="1" parent="1">
          <mxGeometry x="418" y="500" width="100" height="40" as="geometry" />
        </mxCell>
        <mxCell id="42ggUgKCywgjuGTRXlZn-78" value="Relationship" style="rounded=1;arcSize=10;whiteSpace=wrap;html=1;align=center;" vertex="1" parent="1">
          <mxGeometry x="518" y="500" width="100" height="40" as="geometry" />
        </mxCell>
      </root>
    </mxGraphModel>
  </diagram>
</mxfile>
